<?xml version="1.0" encoding="UTF-8" standalone="no"?> <!-- Created with Vectornator for iOS (http://vectornator.io/) --><!DOCTYPE svg PUBLIC "-//W3C//DTD SVG 1.1//EN" "http://www.w3.org/Graphics/SVG/1.1/DTD/svg11.dtd">
<svg height="100%" style="fill-rule:evenodd;clip-rule:evenodd;stroke-linecap:round;stroke-linejoin:round;" xmlns:xlink="http://www.w3.org/1999/xlink" xmlns="http://www.w3.org/2000/svg" xml:space="preserve" width="100%" xmlns:vectornator="http://vectornator.io" version="1.1" viewBox="0 0 512 512">
<metadata>
<vectornator:setting key="DimensionsVisible" value="1"/>
<vectornator:setting key="SnapToGrid" value="0"/>
<vectornator:setting key="SnapToPoints" value="0"/>
<vectornator:setting key="GuidesVisible" value="1"/>
<vectornator:setting key="RulersVisible" value="1"/>
<vectornator:setting key="CMYKEnabledKey" value="0"/>
<vectornator:setting key="SnapToEdges" value="0"/>
<vectornator:setting key="DisplayWhiteBackground" value="0"/>
<vectornator:setting key="SnapToGuides" value="1"/>
<vectornator:setting key="GridSpacing" value="36"/>
<vectornator:setting key="Units" value="Pixels"/>
<vectornator:setting key="DynamicGuides" value="0"/>
<vectornator:setting key="New" value="1"/>
</metadata>
<defs>
<radialGradient cx="270.508" r="15.0568" id="RadialGradient" gradientUnits="userSpaceOnUse" gradientTransform="matrix(0.651302 0 0 0.652948 95.2556 50.3534)" cy="282.5">
<stop stop-color="#c39605" offset="0"/>
<stop stop-color="#f0e563" offset="1"/>
</radialGradient>
<radialGradient cx="270.508" r="15.0568" id="RadialGradient_2" gradientUnits="userSpaceOnUse" gradientTransform="matrix(0.650422 0 0 0.650422 77.5324 79.1484)" cy="282.5">
<stop stop-color="#c39605" offset="0"/>
<stop stop-color="#f0e563" offset="1"/>
</radialGradient>
<radialGradient cx="270.508" r="15.0568" id="RadialGradient_3" gradientUnits="userSpaceOnUse" gradientTransform="matrix(0.651531 0 0 0.651531 73.7768 65.6551)" cy="282.5">
<stop stop-color="#c39605" offset="0"/>
<stop stop-color="#f0e563" offset="1"/>
</radialGradient>
<radialGradient cx="270.508" r="15.0568" id="RadialGradient_4" gradientUnits="userSpaceOnUse" gradientTransform="matrix(0.667357 0 0 0.667357 77.1133 47.1502)" cy="282.5">
<stop stop-color="#c39605" offset="0"/>
<stop stop-color="#f0e563" offset="1"/>
</radialGradient>
<radialGradient cx="270.508" r="15.0568" id="RadialGradient_5" gradientUnits="userSpaceOnUse" gradientTransform="matrix(0.677595 0 0 0.657729 96.5235 60.3989)" cy="282.5">
<stop stop-color="#c39605" offset="0"/>
<stop stop-color="#f0e563" offset="1"/>
</radialGradient>
<radialGradient cx="270.508" r="15.0568" id="RadialGradient_6" gradientUnits="userSpaceOnUse" gradientTransform="matrix(0.677595 0 0 0.657729 81.9769 63.9856)" cy="282.5">
<stop stop-color="#c39605" offset="0"/>
<stop stop-color="#f0e563" offset="1"/>
</radialGradient>
<radialGradient cx="270.508" r="15.0568" id="RadialGradient_7" gradientUnits="userSpaceOnUse" gradientTransform="matrix(0.677595 0 0 0.657729 95.5303 74.1873)" cy="282.5">
<stop stop-color="#c39605" offset="0"/>
<stop stop-color="#f0e563" offset="1"/>
</radialGradient>
<radialGradient cx="270.508" r="15.0568" id="RadialGradient_8" gradientUnits="userSpaceOnUse" gradientTransform="matrix(0.677595 0 0 0.657729 83.9064 80.2089)" cy="282.5">
<stop stop-color="#c39605" offset="0"/>
<stop stop-color="#f0e563" offset="1"/>
</radialGradient>
</defs>
<g id="Layer 1" vectornator:layerName="Layer 1">
<path stroke="#17d5f7" stroke-width="6" d="M205.794+253.835C206.61+150.228+236.016+66.4647+271.474+66.7438C306.932+67.0229+335.016+151.239+334.2+254.846C333.385+358.452+303.979+442.216+268.521+441.936C233.062+441.657+204.979+357.441+205.794+253.835Z" fill="#ffffff" stroke-linecap="butt" fill-opacity="0" opacity="1" stroke-linejoin="round"/>
<path stroke="#17d5f7" stroke-width="6" d="M220.389+295.45C148.127+221.199+110.148+140.958+135.559+116.228C160.971+91.4967+240.151+131.641+312.413+205.892C384.675+280.143+422.654+360.384+397.242+385.115C371.831+409.846+292.651+369.702+220.389+295.45Z" fill="#ffffff" stroke-linecap="butt" fill-opacity="0" opacity="1" stroke-linejoin="round"/>
<path stroke="#17d5f7" stroke-width="6.03" d="M311.711+296.761C238.09+369.665+158.182+408.339+133.231+383.143C108.281+357.947+147.736+278.422+221.357+205.518C294.978+132.614+374.886+93.9396+399.837+119.136C424.787+144.332+385.332+223.857+311.711+296.761Z" fill="#ffffff" stroke-linecap="butt" fill-opacity="0" opacity="1" stroke-linejoin="round"/>
<path stroke="#333333" stroke-width="0.1" d="M261.632+234.811C261.632+229.381+266.022+224.98+271.438+224.98C276.854+224.98+281.245+229.381+281.245+234.811C281.245+240.241+276.854+244.642+271.438+244.642C266.022+244.642+261.632+240.241+261.632+234.811Z" fill="url(#RadialGradient)" stroke-linecap="butt" opacity="1" stroke-linejoin="round"/>
<path stroke="#17d5f7" stroke-width="6" d="M269.987+317.994C166.385+316.722+82.7519+286.949+83.187+251.492C83.6221+216.035+167.961+188.322+271.563+189.593C375.165+190.865+458.798+220.639+458.363+256.095C457.928+291.552+373.589+319.265+269.987+317.994Z" fill="#ffffff" stroke-linecap="butt" fill-opacity="0" opacity="1" stroke-linejoin="round"/>
<g opacity="1">
<path d="M89.2376+365.086C78.5064+365.124+70.3077+374.321+64.8145+382.571C62.0164+386.852+61.9493+397.48+61.9675+402.689L62.0748+433.424C74.1564+432.236+85.9276+431.674+98.0132+431.632C110.828+431.587+123.332+432.064+135.943+433.166L135.836+402.431C130.003+402.973+124.378+403.201+118.544+403.533C118.948+399.886+119.144+396.238+119.131+392.488C119.117+388.528+119.097+382.902+117.209+379.158C113.013+371.15+97.9892+365.056+89.2376+365.086ZM87.8637+389.367C94.219+389.345+101.128+398.802+102.814+404.005L95.7289+404.03C89.061+404.053+82.7049+403.867+76.0359+403.578C77.6887+399.509+82.9669+389.384+87.8637+389.367Z" opacity="1" fill="#f90505"/>
<path d="M102.939+290.753C81.8936+290.826+70.4859+305.973+70.556+326.081C70.6259+346.085+82.1398+361.36+103.185+361.287C124.127+361.214+135.638+345.858+135.568+325.854C135.498+305.851+123.881+290.68+102.939+290.753ZM102.296+315.448C108.131+315.427+112.835+320.099+112.856+325.934C112.876+331.872+108.204+336.369+102.369+336.389C96.5348+336.409+91.9346+331.841+91.9142+326.007C91.8939+320.172+96.5659+315.468+102.296+315.448Z" opacity="1" fill="#f90505"/>
<path d="M73.9338+189.376L70.1626+213.352L96.3428+221.7L70.2528+239.19L99.282+257.842L70.3459+265.862L77.0001+291.781C96.2488+284.317+115.501+277.998+135.381+272.094L135.313+252.716L108.906+239.055L135.214+224.481L135.154+207.29L73.9338+189.376Z" opacity="1" fill="#f90505"/>
<path d="M69.907+140.109L70.0659+185.638C81.7333+185.181+93.0885+184.829+104.757+184.788C114.863+184.753+124.971+185.03+135.078+185.411L134.92+140.09L117.507+136.296C118.254+141.295+118.688+146.294+118.706+151.295C118.715+153.9+118.619+156.401+118.42+158.902C115.815+158.911+113.315+159.128+110.711+159.137L110.645+140.279L93.2323+136.485C94.0822+141.171+94.4114+145.962+94.4285+150.859C94.4383+153.672+94.3436+156.381+94.1447+159.091L92.2693+159.097C90.2898+159.104+88.5183+159.006+86.5387+159.013C86.3206+156.201+86.2065+153.388+86.1967+150.575C86.1796+145.678+86.4762+141.093+87.1884+136.194L69.907+140.109Z" opacity="1" fill="#f90505"/>
<path d="M132.682+66.0209C126.349+72.3985+118.343+77.1148+109.915+80.3741C107.705+74.2347+96.8468+67.6046+90.5957+67.6264C82.6775+67.6541+75.8303+76.013+71.9969+82.1734C70.0282+85.3059+69.7699+100.831+69.7851+105.207L69.8804+132.503C84.1496+131.203+98.524+130.215+112.797+130.166C120.299+130.139+127.488+130.323+134.888+131.026L134.805+107.272C127.718+106.567+120.424+106.28+113.339+106.305C121.133+100.443+128.929+95.4149+135.991+88.8264L132.682+66.0209ZM93.9189+94.391C99.5449+94.3714+103.741+102.483+105.422+106.645L99.692+106.665C95.212+106.681+90.7317+106.592+86.2506+106.295C87.0757+103.896+91.1059+94.4008+93.9189+94.391Z" opacity="1" fill="#f90505"/>
</g>
<g opacity="1">
<path d="M310.2+431.324C309.589+418.93+309.293+406.742+309.203+394.344C309.114+381.946+309.339+369.858+309.666+357.457L279.87+357.673C279.51+365.594+279.253+373.305+279.31+381.223C279.38+390.808+279.658+400.496+280.457+410.18C279.208+410.293+278.062+410.406+276.812+410.415C270.665+410.459+265.234+408.623+260.724+404.488C264.791+390.497+264.665+372.994+264.555+357.783L234.341+358.001C235.557+367.578+236.46+377.261+236.53+386.95C236.621+399.556+235.564+411.858+233.255+424.065C245.693+429.497+258.529+432.322+273.219+432.216C276.217+428.965+279.001+424.985+281.475+421.321L282.799+431.522L310.2+431.324Z" opacity="1" fill="#f90505"/>
<path d="M373.665+389.919C373.596+380.335+365.525+373.62+358.195+368.568C354.322+366.095+345.778+366.053+341.194+366.086L313.481+366.286C314.495+376.802+315.092+387.321+315.167+397.843C315.249+409.095+314.807+420.038+313.95+431.297L341.038+431.101C340.481+426.104+340.34+421+339.991+415.897C343.641+416.392+347.287+416.366+350.934+416.339C354.372+416.314+358.539+416.284+361.445+414.701C368.503+411.003+373.719+397.421+373.665+389.919ZM352.297+388.719C352.339+394.554+344.568+400.548+339.474+402.044L339.43+395.897C339.387+390.063+339.554+384.331+339.825+378.494C343.275+380.137+352.266+384.343+352.297+388.719Z" opacity="1" fill="#f90505"/>
</g>
<path stroke="#333333" stroke-width="0.1" d="M243.684+262.893C243.684+257.484+248.068+253.099+253.477+253.099C258.886+253.099+263.27+257.484+263.27+262.893C263.27+268.301+258.886+272.686+253.477+272.686C248.068+272.686+243.684+268.301+243.684+262.893Z" fill="url(#RadialGradient_2)" stroke-linecap="butt" opacity="1" stroke-linejoin="round"/>
<path stroke="#333333" stroke-width="0.1" d="M240.211+249.713C240.211+244.295+244.604+239.903+250.021+239.903C255.439+239.903+259.831+244.295+259.831+249.713C259.831+255.13+255.439+259.523+250.021+259.523C244.604+259.523+240.211+255.13+240.211+249.713Z" fill="url(#RadialGradient_3)" stroke-linecap="butt" opacity="1" stroke-linejoin="round"/>
<path stroke="#333333" stroke-width="0.1" d="M247.591+235.678C247.591+230.129+252.089+225.63+257.639+225.63C263.188+225.63+267.687+230.129+267.687+235.678C267.687+241.228+263.188+245.727+257.639+245.727C252.089+245.727+247.591+241.228+247.591+235.678Z" fill="url(#RadialGradient_4)" stroke-linecap="butt" opacity="1" stroke-linejoin="round"/>
<path stroke="#333333" stroke-width="0.1" d="M269.616+246.207C269.616+240.738+274.184+236.304+279.819+236.304C285.453+236.304+290.021+240.738+290.021+246.207C290.021+251.677+285.453+256.111+279.819+256.111C274.184+256.111+269.616+251.677+269.616+246.207Z" fill="url(#RadialGradient_5)" stroke-linecap="butt" opacity="1" stroke-linejoin="round"/>
<path stroke="#333333" stroke-width="0.1" d="M255.07+249.794C255.07+244.325+259.637+239.891+265.272+239.891C270.907+239.891+275.474+244.325+275.474+249.794C275.474+255.263+270.907+259.697+265.272+259.697C259.637+259.697+255.07+255.263+255.07+249.794Z" fill="url(#RadialGradient_6)" stroke-linecap="butt" opacity="1" stroke-linejoin="round"/>
<path stroke="#333333" stroke-width="0.1" d="M268.623+259.996C268.623+254.526+273.191+250.092+278.825+250.092C284.46+250.092+289.028+254.526+289.028+259.996C289.028+265.465+284.46+269.899+278.825+269.899C273.191+269.899+268.623+265.465+268.623+259.996Z" fill="url(#RadialGradient_7)" stroke-linecap="butt" opacity="1" stroke-linejoin="round"/>
<path stroke="#333333" stroke-width="0.1" d="M256.999+266.017C256.999+260.548+261.567+256.114+267.201+256.114C272.836+256.114+277.404+260.548+277.404+266.017C277.404+271.487+272.836+275.921+267.201+275.921C261.567+275.921+256.999+271.487+256.999+266.017Z" fill="url(#RadialGradient_8)" stroke-linecap="butt" opacity="1" stroke-linejoin="round"/>
</g>
</svg>
